<?xml version="1.0" encoding="UTF-8"?>
<svg version="1.1" xmlns="http://www.w3.org/2000/svg" width="766" height="879">
<path d="M0 0 C14.14389273 10.03317676 23.69827883 24.34061942 26.71020508 41.48168945 C27.48411021 46.1686225 28.16407883 50.86509298 28.80786133 55.5715332 C29.43692383 54.46036133 30.06598633 53.34918945 30.71411133 52.2043457 C35.50508042 43.83591884 40.2333857 35.69497101 46.80786133 28.5715332 C47.44594727 27.87930664 48.0840332 27.18708008 48.74145508 26.47387695 C61.10329543 14.34571978 78.35292157 9.01603189 95.36132812 9.15136719 C112.78875357 9.76419543 127.66390468 17.27712046 139.80786133 29.5715332 C140.44336914 30.18512695 141.07887695 30.7987207 141.73364258 31.4309082 C153.39033548 43.52698864 157.32573221 59.74776226 157.22998047 76.06811523 C156.74736239 92.85056542 148.75433205 106.55582682 140.37036133 120.6965332 C139.1314562 122.80293722 137.89319735 124.90972146 136.65551758 127.0168457 C135.70443115 128.63381348 135.70443115 128.63381348 134.73413086 130.28344727 C132.19590998 134.61611631 129.6864111 138.96496237 127.18139648 143.31689453 C125.93200571 145.48729177 124.68037546 147.65640139 123.42651367 149.82421875 C120.28675187 155.25296557 117.17168453 160.69332201 114.10083008 166.16137695 C106.78966458 179.09039961 99.78217827 190.43323869 87.80786133 199.5715332 C88.45110352 199.96083008 89.0943457 200.35012695 89.75708008 200.7512207 C131.54071754 226.62012036 159.93908973 267.08371133 171.33520508 314.77856445 C173.47045686 324.29014059 174.96304123 333.72526241 174.94208241 343.48660088 C174.94443464 344.24514193 174.94678687 345.00368299 174.94921038 345.78521013 C174.95584772 348.31758599 174.95544376 350.84990992 174.95503235 353.3822937 C174.95833426 355.22015622 174.96206051 357.05801803 174.96617383 358.89587891 C174.97616472 363.93955766 174.97990592 368.9832245 174.98256314 374.02691174 C174.98647482 379.46957082 174.99605252 384.91222056 175.004776 390.35487366 C175.02451552 403.49523203 175.03460322 416.63559114 175.04350379 429.77596062 C175.04789061 435.96897919 175.05325638 442.16199691 175.05849266 448.3550148 C175.07550206 468.95022593 175.0899955 489.54543654 175.0972414 510.14065361 C175.09915119 515.48219681 175.10106987 520.82374002 175.10302734 526.1652832 C175.10326749 526.82886113 175.10350764 527.49243906 175.10375507 528.17612542 C175.11164302 549.67718026 175.13506582 571.17817985 175.16758329 592.67921058 C175.20193478 615.43466582 175.22159635 638.19009027 175.22488564 660.94557202 C175.22704786 673.34052875 175.2357545 685.73540425 175.26134682 698.13033676 C175.28309527 708.6877551 175.29108382 719.24507247 175.28138003 729.80251066 C175.27684745 735.18398326 175.27866092 740.56524771 175.29814148 745.94669151 C175.31586036 750.8843607 175.31470517 755.82167125 175.29924419 760.75934471 C175.2968813 762.53465403 175.30112217 764.30998876 175.31307284 766.08525942 C175.49670919 795.19461134 165.75031217 820.12991063 145.28051758 841.16918945 C124.71553197 860.70743569 99.8807065 869.27582456 71.78393555 869.04223633 C45.35026804 868.34180934 22.83556542 857.72517315 3.80786133 839.5715332 C-15.61032682 821.83146008 -37.57210668 807.46829432 -63.19213867 800.5715332 C-63.90660156 800.37543457 -64.62106445 800.17933594 -65.35717773 799.97729492 C-88.48712651 793.9199229 -115.16820681 794.29465865 -138.19213867 800.5715332 C-138.84666016 800.74281738 -139.50118164 800.91410156 -140.17553711 801.09057617 C-164.48672967 807.65043917 -185.22535811 821.31685065 -203.19213867 838.5715332 C-227.64417036 861.13572421 -253.76518969 869.82926047 -286.82299805 868.76245117 C-311.62659286 867.35691413 -334.46453075 854.12224958 -351.31713867 836.3840332 C-370.01987374 815.04335293 -376.88056853 790.57694104 -376.64624023 762.62768555 C-376.64510856 760.70387292 -376.64575184 758.78005858 -376.64801025 756.85624695 C-376.64914585 751.69409824 -376.62582606 746.53233041 -376.59771442 741.3702693 C-376.5725058 735.95313478 -376.57034357 730.53598906 -376.56561279 725.11880493 C-376.55323971 714.88764831 -376.52049571 704.65666511 -376.48021483 694.42558444 C-376.43531954 682.76640494 -376.41346565 671.10721664 -376.39343309 659.44797206 C-376.35175735 635.48906342 -376.28151688 611.53030808 -376.19213867 587.5715332 C-377.32433838 587.58966064 -378.45653809 587.60778809 -379.62304688 587.62646484 C-381.14216716 587.64113383 -382.66129185 587.65535116 -384.18041992 587.66918945 C-384.92263794 587.68228149 -385.66485596 587.69537354 -386.42956543 587.7088623 C-409.5542814 587.86608773 -426.53617181 574.98834525 -442.72973633 559.92504883 C-444.90621699 557.91062332 -447.11059233 555.92792176 -449.31713867 553.9465332 C-450.12666992 553.21950195 -450.93620117 552.4924707 -451.77026367 551.7434082 C-452.56948242 551.02668945 -453.36870117 550.3099707 -454.19213867 549.5715332 C-459.59507173 544.72632227 -464.97577771 539.85944723 -470.31713867 534.9465332 C-473.55431084 531.9693504 -476.80351596 529.01200465 -480.12963867 526.1340332 C-484.25969052 522.55351008 -488.25817937 518.83573558 -492.26733398 515.12133789 C-497.19859521 510.55556678 -502.18511836 506.05408658 -507.19213867 501.5715332 C-509.64769085 499.36986687 -512.10098688 497.16593656 -514.54760742 494.9543457 C-516.4377964 493.25122121 -518.33582212 491.56011566 -520.24291992 489.8762207 C-532.93455295 478.58928118 -544.04938718 464.80512288 -545.37231445 447.16967773 C-546.3798294 427.29021613 -542.8615565 410.44345261 -529.62963867 394.8215332 C-517.19959215 381.92136389 -500.76345448 374.6048547 -482.81713867 374.2590332 C-467.94097871 374.2590332 -455.8478984 378.96520274 -443.19213867 386.5715332 C-441.77022217 387.42473145 -441.77022217 387.42473145 -440.31958008 388.29516602 C-435.15304501 391.40638612 -429.99948164 394.53809384 -424.85481262 397.68527222 C-415.90617357 403.15785757 -406.90183245 408.53374548 -397.87963867 413.8840332 C-397.1924173 414.29199127 -396.50519592 414.69994934 -395.79714966 415.12026978 C-387.66929602 419.95305283 -387.66929602 419.95305283 -379.48664856 424.69206238 C-378.3994603 425.31228775 -377.31227203 425.93251312 -376.19213867 426.5715332 C-376.20213142 424.92473824 -376.20213142 424.92473824 -376.21232605 423.24467468 C-376.27356645 412.81687891 -376.31831504 402.38912037 -376.34757519 391.9611845 C-376.36312457 386.60213825 -376.38416281 381.24323902 -376.41845703 375.88427734 C-376.45143817 370.69709169 -376.46907195 365.51004599 -376.4767704 360.32276344 C-376.48224529 358.35956435 -376.4929324 356.39637151 -376.50932884 354.43323326 C-376.64110827 337.97672748 -375.27421239 321.96534905 -370.50463867 306.1340332 C-370.24972656 305.27189209 -369.99481445 304.40975098 -369.73217773 303.52148438 C-355.64402435 257.25528173 -324.783372 218.55171827 -282.28100586 195.18994141 C-270.27867857 188.81732512 -257.64538635 184.10744229 -244.62963867 180.2590332 C-243.86482178 180.02861328 -243.10000488 179.79819336 -242.31201172 179.56079102 C-224.32622317 174.5218845 -206.38052976 174.0995413 -187.82258821 174.0654223 C-184.3419203 174.05589346 -180.86137382 174.02968151 -177.38078308 174.00541687 C-170.82240341 173.96213984 -164.26404781 173.93335692 -157.70556992 173.91009349 C-150.22515178 173.88283072 -142.74485817 173.8389345 -135.26452982 173.79380476 C-119.90713064 173.70151584 -104.54970784 173.62958328 -89.19213867 173.5715332 C-89.60872238 172.88686478 -90.02530609 172.20219635 -90.45451355 171.4967804 C-90.9985231 170.59759384 -91.54253265 169.69840729 -92.10302734 168.77197266 C-92.64336105 167.88105423 -93.18369476 166.9901358 -93.74040222 166.07221985 C-95.30811644 163.37175586 -96.49883101 160.71442398 -97.50463867 157.7590332 C-97.81014648 156.88633789 -98.1156543 156.01364258 -98.43041992 155.11450195 C-100.2092737 149.17586704 -100.3517531 143.64078051 -100.36914062 137.47973633 C-100.37571182 136.46600952 -100.38228302 135.45228271 -100.38905334 134.40783691 C-100.40874605 131.05615152 -100.42044221 127.70451093 -100.43041992 124.3527832 C-100.43449545 123.20414291 -100.43857098 122.05550262 -100.44277 120.87205505 C-100.46361709 114.78815899 -100.47792275 108.70428536 -100.48730469 102.62036133 C-100.49834497 96.3608235 -100.53272172 90.10164349 -100.57247639 83.84223175 C-100.5987256 79.00866064 -100.60700408 74.17517358 -100.61058617 69.34153748 C-100.61543339 67.03565565 -100.62699361 64.72977711 -100.64562416 62.42396545 C-100.82098791 39.27473724 -100.82098791 39.27473724 -96.19213867 28.5715332 C-95.80371292 27.65585571 -95.41528717 26.74017822 -95.01509094 25.79675293 C-88.17027226 10.40498807 -74.53422688 -1.62234726 -58.95410156 -7.62353516 C-39.1346428 -14.53614538 -17.2902625 -11.61264743 0 0 Z " fill="#E96E21" transform="translate(591.192138671875,10.428466796875)"/>
<path d="M0 0 C2.39986916 -0.00407203 4.79973644 -0.00941744 7.19960022 -0.01593018 C13.00826736 -0.02812679 18.81680343 -0.02642861 24.62547439 -0.01769225 C29.35229596 -0.01088108 34.07908502 -0.01001371 38.80591011 -0.0132637 C39.48199706 -0.0137234 40.15808401 -0.0141831 40.85465844 -0.01465673 C42.22868574 -0.01561603 43.60271303 -0.01658868 44.97674031 -0.0175745 C57.82290638 -0.02610324 70.66900794 -0.0163343 83.51516343 -0.0001734 C94.50460738 0.01322443 105.49395621 0.0109012 116.48339844 -0.00292969 C129.2861236 -0.01903547 142.08879239 -0.02527631 154.89152628 -0.0160929 C156.26043831 -0.01513739 157.62935036 -0.01419427 158.99826241 -0.0132637 C159.67155732 -0.01280088 160.34485224 -0.01233805 161.03855003 -0.0118612 C165.75157899 -0.00928602 170.46457178 -0.01361033 175.17759514 -0.02070236 C181.53810148 -0.02941883 187.8984296 -0.02326504 194.25891685 -0.00601959 C196.58235123 -0.00207948 198.90580081 -0.00314589 201.22922897 -0.00980759 C233.4048411 -0.09349948 260.32021321 7.65777759 284.05102539 30.41943359 C303.95730582 50.24027934 312.32292671 76.73002407 312.38583374 104.31394958 C312.38046239 106.30614437 312.37430903 108.29833719 312.36743164 110.29052734 C312.36945857 112.38310344 312.37237513 114.47567885 312.37612915 116.56825256 C312.38052436 120.93106889 312.37421319 125.29369959 312.36010742 129.65649414 C312.34302813 135.20472237 312.352867 140.75251464 312.37082481 146.30072689 C312.38174804 150.61543467 312.37817729 154.93004181 312.37044144 159.24475288 C312.36846238 161.28856014 312.37081642 163.33237701 312.3778801 165.37617302 C312.46179219 196.47059281 304.2854316 223.18885201 282.71899414 246.07568359 C264.27111226 263.68502539 239.06378736 274.76789771 213.47721863 274.64215088 C212.4813111 274.64527086 211.48540357 274.64839084 210.45931703 274.65160537 C207.15413118 274.65952142 203.84913221 274.65328674 200.54394531 274.64697266 C198.16112664 274.64968541 195.77830881 274.65324794 193.39549255 274.65759277 C187.61370899 274.66574388 181.83198382 274.66458075 176.05019852 274.65876749 C171.34615273 274.65423533 166.64212146 274.6536448 161.93807411 274.65581512 C161.26641848 274.65612159 160.59476285 274.65642806 159.90275401 274.65674381 C158.53790312 274.65738332 157.17305223 274.65803175 155.80820135 274.65868899 C143.0317538 274.66438199 130.25533502 274.65785128 117.47889218 274.64708826 C106.54222881 274.63815982 95.60560792 274.63970095 84.66894531 274.64892578 C71.94025659 274.65965726 59.21159306 274.66382634 46.48290044 274.65770125 C45.12238745 274.65706422 43.76187446 274.65643548 42.40136147 274.65581512 C41.73213339 274.65550657 41.06290532 274.65519802 40.37339761 274.65488012 C35.68252489 274.65316133 30.99167312 274.65614972 26.30080223 274.66077423 C19.97158097 274.66657831 13.64243941 274.66249495 7.3132267 274.65098572 C4.99862932 274.64835513 2.68402517 274.64907664 0.36943054 274.65351105 C-14.19702124 274.67883152 -28.39020885 274.500601 -42.46850586 270.26318359 C-43.17458984 270.05072998 -43.88067383 269.83827637 -44.6081543 269.61938477 C-67.47912766 262.33226529 -87.65183228 245.25063096 -99.18579102 224.28955078 C-103.60966892 215.72083064 -107.64856531 206.75282614 -110.03100586 197.38818359 C-110.28108902 196.4151252 -110.28108902 196.4151252 -110.53622437 195.42240906 C-112.71692811 185.47361844 -112.32013797 175.37119332 -112.29663086 165.24365234 C-112.29798091 163.18540908 -112.29992427 161.12716613 -112.3024292 159.06892395 C-112.30536643 154.76800482 -112.3011294 150.46716914 -112.29174805 146.16625977 C-112.28037609 140.68954635 -112.28690771 135.21302951 -112.29889297 129.73632336 C-112.30616803 125.48861752 -112.30379753 121.2409572 -112.29863739 116.99324989 C-112.29731533 114.97570077 -112.2988972 112.95814734 -112.3035965 110.94060326 C-112.32903666 96.94709322 -111.94188064 83.33626976 -107.84350586 69.82568359 C-107.62847412 69.11371826 -107.41344238 68.40175293 -107.19189453 67.66821289 C-99.77151374 44.31298969 -81.6187272 23.35211181 -59.97241211 12.04541016 C-40.06768656 2.10245415 -21.98960005 -0.062988 0 0 Z " fill="#241C2F" transform="translate(391.031005859375,257.61181640625)"/>
<path d="M0 0 C0.94141846 0.46140381 0.94141846 0.46140381 1.90185547 0.93212891 C13.49026314 6.68560285 13.49026314 6.68560285 16 11 C16.5412081 15.96107425 16.14534237 19.06832204 13 23 C9.54181095 25.59364179 6.2008535 25.35983406 2 25 C-1.15894052 23.71206235 -4.05195793 22.02106889 -7 20.3125 C-15.14068108 15.7982018 -23.03261465 12.50713635 -32 10 C-32.65742187 9.80277344 -33.31484375 9.60554688 -33.9921875 9.40234375 C-53.38723792 5.51578695 -73.40092298 15.17166093 -90.0456543 24.09692383 C-93.1923547 25.55097065 -95.59124261 25.41861933 -99 25 C-102.87949018 21.79520377 -104.80826445 19.69366403 -105.375 14.6875 C-104.89306554 9.94847781 -103.56510081 9.06465217 -100 6 C-97.62715239 4.57629143 -95.35437338 3.32041767 -92.875 2.125 C-92.18559326 1.78766846 -91.49618652 1.45033691 -90.78588867 1.1027832 C-58.87691414 -14.12366821 -31.84407092 -15.70130099 0 0 Z " fill="#FBFBFB" transform="translate(612,347)"/>
<path d="M0 0 C0.94141846 0.46140381 0.94141846 0.46140381 1.90185547 0.93212891 C13.49026314 6.68560285 13.49026314 6.68560285 16 11 C16.5412081 15.96107425 16.14534237 19.06832204 13 23 C9.54181095 25.59364179 6.2008535 25.35983406 2 25 C-1.15894052 23.71206235 -4.05195793 22.02106889 -7 20.3125 C-15.14068108 15.7982018 -23.03261465 12.50713635 -32 10 C-32.65742188 9.80277344 -33.31484375 9.60554688 -33.9921875 9.40234375 C-53.38723792 5.51578695 -73.40092298 15.17166093 -90.0456543 24.09692383 C-93.1923547 25.55097065 -95.59124261 25.41861933 -99 25 C-102.87949018 21.79520377 -104.80826445 19.69366403 -105.375 14.6875 C-104.89306554 9.94847781 -103.56510081 9.06465217 -100 6 C-97.62715239 4.57629143 -95.35437338 3.32041767 -92.875 2.125 C-92.18559326 1.78766846 -91.49618652 1.45033691 -90.78588867 1.1027832 C-58.87691414 -14.12366821 -31.84407092 -15.70130099 0 0 Z " fill="#FBFBFB" transform="translate(463,347)"/>
</svg>
