<?xml version="1.0" encoding="UTF-8"?>
<svg version="1.1" xmlns="http://www.w3.org/2000/svg" width="551" height="879">
<path d="M0 0 C0.89960449 0.37922607 0.89960449 0.37922607 1.81738281 0.76611328 C18.49248659 7.94917237 30.79422621 18.97299648 37.85653687 36.05078125 C42.71334159 48.5774462 42.44074259 60.82031153 42.3984375 74.0625 C42.40046217 76.30346776 42.40337688 78.54443487 42.40713501 80.78540039 C42.41153981 85.4653963 42.40518687 90.14521958 42.39111328 94.82519531 C42.37402273 100.79651129 42.38387382 106.76742259 42.40183067 112.73872375 C42.41271842 117.36123656 42.40919932 121.98365486 42.4014473 126.60617065 C42.39945907 128.80679371 42.40185561 131.0074256 42.40888596 133.20803833 C42.45415226 151.35572168 40.13616248 165.18814468 31 181 C31.66717041 181.03440186 32.33434082 181.06880371 33.02172852 181.10424805 C62.6443087 182.7368691 89.83643741 188.75646303 116 203 C116.61069336 203.32613281 117.22138672 203.65226563 117.85058594 203.98828125 C159.84130162 226.49691902 189.77661089 265.75016241 203.54003906 310.94995117 C203.92240723 312.24316284 203.92240723 312.24316284 204.3125 313.5625 C204.54291992 314.32731689 204.77333984 315.09213379 205.01074219 315.88012695 C209.2690971 331.0798277 210.44665437 346.42761483 210.38768005 362.13356018 C210.39186514 363.9809188 210.39734902 365.82827484 210.40399987 367.67562622 C210.41831867 372.69450345 210.41425277 377.71321457 210.40683305 382.73210037 C210.40206985 388.16707789 210.41463873 393.60202108 210.42485046 399.0369873 C210.44198105 409.66111856 210.44289063 420.28519052 210.43763756 430.90933198 C210.43358475 439.5486045 210.43505257 448.18785958 210.44038582 456.82713127 C210.44113424 458.05994643 210.44188266 459.29276158 210.44265376 460.56293477 C210.44418534 463.06790146 210.44572369 465.57286815 210.44726873 468.07783484 C210.4605823 490.86023288 210.45629035 513.64259916 210.44505819 536.42499665 C210.43495419 557.18562419 210.44332047 577.94617084 210.46655273 598.70678711 C210.49266502 622.07833998 210.50541358 645.44984448 210.49836498 668.8214125 C210.49487837 681.1793077 210.49706828 693.53713651 210.51461601 705.89502144 C210.52936544 716.41192695 210.52993732 726.92871927 210.5125451 737.44562263 C210.50405636 742.80488569 210.50183361 748.16394677 210.51719666 753.52319908 C210.53111657 758.4400882 210.52618751 763.35660368 210.50695742 768.27347159 C210.50321947 770.04104428 210.50605481 771.80864743 210.51656907 773.5761928 C210.67710151 802.65775984 200.9214256 827.5799876 180.47265625 848.59765625 C159.90767064 868.13590249 135.07284517 876.70429136 106.97607422 876.47070312 C80.54240671 875.77027614 58.02770409 865.15363995 39 847 C19.58181185 829.25992687 -2.379968 814.89676112 -28 808 C-28.71446289 807.80390137 -29.42892578 807.60780273 -30.16503906 807.40576172 C-53.29498784 801.34838969 -79.97606814 801.72312544 -103 808 C-103.98178223 808.25692627 -103.98178223 808.25692627 -104.98339844 808.51904297 C-129.294591 815.07890597 -150.03321944 828.74531745 -168 846 C-192.45203169 868.56419101 -218.57305102 877.25772726 -251.63085938 876.19091797 C-276.43445419 874.78538093 -299.27239208 861.55071638 -316.125 843.8125 C-334.52511079 822.81712795 -341.66504721 798.53675821 -341.50120544 770.99342346 C-341.50510879 769.14763953 -341.51075744 767.30185862 -341.51797634 765.45608467 C-341.53260072 760.43682168 -341.52262801 755.41787658 -341.50823963 750.3986243 C-341.49705885 744.9649737 -341.50909583 739.53136513 -341.51808167 734.09771729 C-341.5319683 723.47375646 -341.5244917 712.84991503 -341.50940608 702.22595996 C-341.49248773 689.83643884 -341.49576362 677.44694697 -341.49950016 665.05741786 C-341.50554755 642.27322454 -341.48980927 619.48909069 -341.46431253 596.70491345 C-341.44120338 575.94445039 -341.43580961 555.18405701 -341.44604492 534.42358398 C-341.45747245 511.0534929 -341.45936131 487.683437 -341.44494683 464.31334633 C-341.4434211 461.81794131 -341.44190074 459.32253629 -341.44038582 456.82713127 C-341.439628 455.59955729 -341.43887019 454.37198331 -341.43808941 453.10721012 C-341.43336053 444.48522603 -341.43518811 435.86325772 -341.43945122 427.24127388 C-341.44439466 416.72328383 -341.4383191 406.20536561 -341.41855692 395.68739194 C-341.40873304 390.32804841 -341.40352638 384.96881388 -341.41144943 379.60946465 C-341.4185711 374.69129887 -341.41155211 369.77335179 -341.3938458 364.85521459 C-341.38984289 363.08827026 -341.39072999 361.32130557 -341.39736467 359.55436916 C-341.45089648 343.94638289 -339.83169447 328.56274934 -335.3125 313.5625 C-335.05758789 312.70035889 -334.80267578 311.83821777 -334.54003906 310.94995117 C-320.45188568 264.68374853 -289.59123333 225.98018506 -247.08886719 202.6184082 C-222.37407105 189.49612712 -195.73556904 183.12448891 -168 181 C-168.34554932 180.40912598 -168.69109863 179.81825195 -169.04711914 179.20947266 C-177.79989416 164.23712937 -186.52075253 149.24698003 -195.15527344 134.20605469 C-196.99405162 131.01033802 -198.84436218 127.82149061 -200.6953125 124.6328125 C-201.8598903 122.60967153 -203.02397462 120.5862464 -204.1875 118.5625 C-204.71609619 117.65814209 -205.24469238 116.75378418 -205.78930664 115.82202148 C-215.1283404 99.48364046 -218.30681304 80.73005908 -213.375 62.3125 C-207.57017288 45.32276208 -196.53821134 31.47043907 -180.47265625 23.1796875 C-164.5216387 16.00952326 -146.75261693 14.22394435 -130 20 C-108.2781144 28.87638514 -97.57049682 44.04003101 -87 64 C-86.93530518 63.42668945 -86.87061035 62.85337891 -86.80395508 62.26269531 C-84.28319544 40.68585831 -84.28319544 40.68585831 -79 31 C-78.26136719 29.62521484 -78.26136719 29.62521484 -77.5078125 28.22265625 C-68.9305408 13.59204687 -56.40029927 3.95207394 -40.5 -1.5 C-28.00246308 -4.6773399 -11.96770359 -5.15131589 0 0 Z " fill="#E96E21" transform="translate(341,3)"/>
<path d="M0 0 C2.39986916 -0.00407203 4.79973644 -0.00941744 7.19960022 -0.01593018 C13.00826736 -0.02812679 18.81680343 -0.02642861 24.62547439 -0.01769225 C29.35229596 -0.01088108 34.07908502 -0.01001371 38.80591011 -0.0132637 C39.48199706 -0.0137234 40.15808401 -0.0141831 40.85465844 -0.01465673 C42.22868574 -0.01561603 43.60271303 -0.01658868 44.97674031 -0.0175745 C57.82290638 -0.02610324 70.66900794 -0.0163343 83.51516343 -0.0001734 C94.50460738 0.01322443 105.49395621 0.0109012 116.48339844 -0.00292969 C129.2861236 -0.01903547 142.08879239 -0.02527631 154.89152628 -0.0160929 C156.26043831 -0.01513739 157.62935036 -0.01419427 158.99826241 -0.0132637 C159.67155732 -0.01280088 160.34485224 -0.01233805 161.03855003 -0.0118612 C165.75157899 -0.00928602 170.46457178 -0.01361033 175.17759514 -0.02070236 C181.53810148 -0.02941883 187.8984296 -0.02326504 194.25891685 -0.00601959 C196.58235123 -0.00207948 198.90580081 -0.00314589 201.22922897 -0.00980759 C233.4048411 -0.09349948 260.32021321 7.65777759 284.05102539 30.41943359 C303.95730582 50.24027934 312.32292671 76.73002407 312.38583374 104.31394958 C312.38046239 106.30614437 312.37430903 108.29833719 312.36743164 110.29052734 C312.36945857 112.38310344 312.37237513 114.47567885 312.37612915 116.56825256 C312.38052436 120.93106889 312.37421319 125.29369959 312.36010742 129.65649414 C312.34302813 135.20472237 312.352867 140.75251464 312.37082481 146.30072689 C312.38174804 150.61543467 312.37817729 154.93004181 312.37044144 159.24475288 C312.36846238 161.28856014 312.37081642 163.33237701 312.3778801 165.37617302 C312.46179219 196.47059281 304.2854316 223.18885201 282.71899414 246.07568359 C274.67773798 253.80327373 265.41971728 260.4241162 254.96899414 264.38818359 C254.85942383 263.20482422 254.74985352 262.02146484 254.63696289 260.80224609 C252.64303136 240.41623838 246.93311562 225.20449441 230.71899414 211.63818359 C218.17602794 202.36252852 205.41413986 200.0294874 190.21899414 200.01318359 C189.03305664 199.98869141 187.84711914 199.96419922 186.62524414 199.93896484 C170.23320412 199.88527912 156.09871445 205.7810445 144.25024414 217.04833984 C131.5847315 230.03916531 126.83367771 244.57594386 126.34399414 262.38818359 C126.30532227 263.54447266 126.26665039 264.70076172 126.22680664 265.89208984 C126.13319082 268.72396839 126.04745739 271.55585154 125.96899414 274.38818359 C107.17475959 274.43503541 88.380537 274.47023676 69.58625603 274.49180794 C60.85850947 274.50209283 52.13079934 274.51609949 43.40307617 274.5390625 C35.79039869 274.55908212 28.1777476 274.57192025 20.56504452 274.57636058 C16.53926964 274.57895353 12.51357022 274.58498908 8.48781967 274.59964371 C4.68755622 274.61336355 0.8873983 274.61737761 -2.91288757 274.61439896 C-4.94986325 274.61519923 -6.98682782 274.62588464 -9.02377319 274.63702393 C-20.34421801 274.61207936 -31.59056414 273.53732815 -42.46850586 270.26318359 C-43.17458984 270.05072998 -43.88067383 269.83827637 -44.6081543 269.61938477 C-67.47912766 262.33226529 -87.65183228 245.25063096 -99.18579102 224.28955078 C-103.60966892 215.72083064 -107.64856531 206.75282614 -110.03100586 197.38818359 C-110.28108902 196.4151252 -110.28108902 196.4151252 -110.53622437 195.42240906 C-112.71692811 185.47361844 -112.32013797 175.37119332 -112.29663086 165.24365234 C-112.29798091 163.18540908 -112.29992427 161.12716613 -112.3024292 159.06892395 C-112.30536643 154.76800482 -112.3011294 150.46716914 -112.29174805 146.16625977 C-112.28037609 140.68954635 -112.28690771 135.21302951 -112.29889297 129.73632336 C-112.30616803 125.48861752 -112.30379753 121.2409572 -112.29863739 116.99324989 C-112.29731533 114.97570077 -112.2988972 112.95814734 -112.3035965 110.94060326 C-112.32903666 96.94709322 -111.94188064 83.33626976 -107.84350586 69.82568359 C-107.62847412 69.11371826 -107.41344238 68.40175293 -107.19189453 67.66821289 C-99.77151374 44.31298969 -81.6187272 23.35211181 -59.97241211 12.04541016 C-40.06768656 2.10245415 -21.98960005 -0.062988 0 0 Z " fill="#241C2F" transform="translate(176.031005859375,257.61181640625)"/>
<path d="M0 0 C1.38761247 -0.00599725 2.77522164 -0.01280551 4.16282654 -0.02035522 C7.90480873 -0.03790117 11.64669924 -0.04270576 15.38871861 -0.0439868 C17.73436224 -0.0454155 20.07998309 -0.04969862 22.42562103 -0.05498123 C30.63093018 -0.07344408 38.83617467 -0.08165659 47.04150391 -0.08007812 C54.65438759 -0.07887788 62.26698725 -0.09996682 69.87979913 -0.13156545 C76.44578371 -0.15783444 83.01167613 -0.16844099 89.57771277 -0.16716731 C93.4860357 -0.16666077 97.39410587 -0.17217139 101.30237579 -0.19352341 C104.98306765 -0.21308613 108.66327026 -0.21290939 112.34398079 -0.19849014 C114.31407712 -0.19544876 116.28417449 -0.21195142 118.25419617 -0.22937012 C136.60294216 -0.1019488 151.07127447 6.47027638 163.95996094 19.29052734 C164.78947266 20.06783203 164.78947266 20.06783203 165.63574219 20.86083984 C177.32049327 32.89203907 180.04198852 48.89795768 180.20996094 64.91552734 C180.22446289 66.22203247 180.22446289 66.22203247 180.23925781 67.55493164 C180.15005562 84.43485414 173.9132027 99.03751207 162.45996094 111.35302734 C151.52618214 121.94048735 137.26372022 128.38622353 121.97973633 128.43096924 C120.80532486 128.43667938 119.63091339 128.44238953 118.4209137 128.44827271 C117.14602585 128.44939056 115.871138 128.45050842 114.55761719 128.45166016 C113.19030119 128.45629382 111.82298646 128.46131921 110.45567322 128.46670532 C106.75066167 128.47978326 103.04566821 128.48626589 99.34063721 128.49071598 C97.01981365 128.4936557 94.69899493 128.49776229 92.37817383 128.50222015 C85.0995505 128.51588635 77.82093835 128.52555586 70.54230309 128.52942204 C62.173197 128.53389314 53.80425502 128.55140047 45.43519878 128.58042264 C38.94573739 128.60213595 32.45632182 128.61213153 25.96682453 128.61346316 C22.1009571 128.61450482 18.23524409 128.6202741 14.36941528 128.63828278 C10.72496646 128.65493011 7.08078534 128.65683958 3.43631172 128.64814377 C1.48526666 128.64702309 -0.4657702 128.6606132 -2.41676331 128.67489624 C-20.41287398 128.59116558 -34.81161954 124.06077565 -47.89941406 111.45849609 C-48.60582031 110.74306641 -49.31222656 110.02763672 -50.04003906 109.29052734 C-50.88308594 108.48035156 -50.88308594 108.48035156 -51.74316406 107.65380859 C-62.90995958 95.9874459 -66.58955061 79.3996157 -66.41503906 63.79052734 C-66.42664063 62.75283203 -66.43824219 61.71513672 -66.45019531 60.64599609 C-66.38863995 44.16967846 -60.65931199 30.30723184 -49.20019531 18.42724609 C-48.48734375 17.72212891 -47.77449219 17.01701172 -47.04003906 16.29052734 C-46.26466797 15.46488281 -46.26466797 15.46488281 -45.47363281 14.62255859 C-41.61180615 10.86156292 -36.97844625 8.49172004 -32.22753906 6.04052734 C-31.5758374 5.69876465 -30.92413574 5.35700195 -30.25268555 5.00488281 C-20.54758302 0.20672029 -10.66118221 -0.00755389 0 0 Z " fill="#C96424" transform="translate(96.0400390625,552.70947265625)"/>
<path d="M0 0 C1.20720703 -0.01611328 2.41441406 -0.03222656 3.65820312 -0.04882812 C20.24903601 -0.05780099 35.11735479 5.47615312 47.0859375 17.15234375 C47.77945313 17.86519531 48.47296875 18.57804687 49.1875 19.3125 C49.73664063 19.82941406 50.28578125 20.34632813 50.8515625 20.87890625 C62.02696566 32.32323622 64.60606598 47.15350334 65.81201172 62.43334961 C65.93592285 63.05346924 66.05983398 63.67358887 66.1875 64.3125 C66.8475 64.6425 67.5075 64.9725 68.1875 65.3125 C67.5275 65.9725 66.8675 66.6325 66.1875 67.3125 C65.87761346 69.19036541 65.87761346 69.19036541 65.91575623 71.36476135 C65.90117874 72.63674126 65.90117874 72.63674126 65.88630676 73.93441772 C65.88571762 74.8668631 65.88512848 75.79930847 65.88452148 76.76000977 C65.87186249 78.23105919 65.87186249 78.23105919 65.85894775 79.73182678 C65.83306261 82.98919131 65.82099941 86.24646486 65.80859375 89.50390625 C65.79242198 91.76635966 65.77524233 94.02880608 65.75709534 96.29124451 C65.71129955 102.26364897 65.67656593 108.23606287 65.64489746 114.20855713 C65.59315079 123.7437538 65.52759679 133.27884602 65.45668221 142.81391716 C65.43394419 146.14014166 65.41760453 149.46635333 65.40196228 152.7926178 C65.38854265 154.84815606 65.37492675 156.90369306 65.36108398 158.95922852 C65.35847061 159.87750427 65.35585724 160.79578003 65.35316467 161.74188232 C65.20740425 180.07630888 59.55323202 194.51773817 47 208 C32.17207485 222.24890601 14.81163631 224.74598208 -4.80078125 224.51953125 C-22.16836975 224.0802889 -35.59739098 217.68364143 -47.8125 205.3125 C-48.37453125 204.77238281 -48.9365625 204.23226562 -49.515625 203.67578125 C-60.65146625 192.04175762 -64.28156271 175.51385722 -64.21655273 159.95727539 C-64.22341599 158.78646927 -64.23027924 157.61566315 -64.23735046 156.40937805 C-64.25550776 152.57617737 -64.25179679 148.7433903 -64.24609375 144.91015625 C-64.24950437 142.90348079 -64.2529245 140.89680515 -64.25744683 138.89013189 C-64.27142921 132.59248127 -64.26998339 126.29496649 -64.25854492 119.99731445 C-64.2470679 113.53631059 -64.26114644 107.07572204 -64.2879414 100.61477286 C-64.31020909 95.03302818 -64.31671111 89.45141281 -64.31086498 83.86962694 C-64.30752069 80.55100517 -64.31148943 77.23270524 -64.32711601 73.91411018 C-64.3421111 70.20813848 -64.33128546 66.50306414 -64.31420898 62.79711914 C-64.32387695 61.72192017 -64.33354492 60.64672119 -64.34350586 59.53894043 C-64.17869004 42.32594126 -56.7462127 28.3099158 -44.8125 16.3125 C-44.29429687 15.75949219 -43.77609375 15.20648438 -43.2421875 14.63671875 C-39.34245952 10.8492866 -34.67741127 8.50850322 -29.875 6.0625 C-29.20654053 5.7207373 -28.53808105 5.37897461 -27.84936523 5.02685547 C-18.55663007 0.47739347 -10.24431493 -0.02708703 0 0 Z " fill="#C86325" transform="translate(365.8125,456.6875)"/>
<path d="M0 0 C0.94141846 0.46140381 0.94141846 0.46140381 1.90185547 0.93212891 C13.49026314 6.68560285 13.49026314 6.68560285 16 11 C16.5412081 15.96107425 16.14534237 19.06832204 13 23 C9.54181095 25.59364179 6.2008535 25.35983406 2 25 C-1.15894052 23.71206235 -4.05195793 22.02106889 -7 20.3125 C-15.14068108 15.7982018 -23.03261465 12.50713635 -32 10 C-32.65742188 9.80277344 -33.31484375 9.60554688 -33.9921875 9.40234375 C-53.38723792 5.51578695 -73.40092298 15.17166093 -90.0456543 24.09692383 C-93.1923547 25.55097065 -95.59124261 25.41861933 -99 25 C-102.87949018 21.79520377 -104.80826445 19.69366403 -105.375 14.6875 C-104.89306554 9.94847781 -103.56510081 9.06465217 -100 6 C-97.62715239 4.57629143 -95.35437338 3.32041767 -92.875 2.125 C-92.18559326 1.78766846 -91.49618652 1.45033691 -90.78588867 1.1027832 C-58.87691414 -14.12366821 -31.84407092 -15.70130099 0 0 Z " fill="#FBFBFB" transform="translate(248,370)"/>
<path d="M0 0 C1.36693748 -0.0129007 1.36693748 -0.0129007 2.76148987 -0.02606201 C3.76926987 -0.03032196 4.77704987 -0.03458191 5.81536865 -0.03897095 C7.39824928 -0.05123718 7.39824928 -0.05123718 9.0131073 -0.06375122 C12.52238385 -0.08866329 16.03161979 -0.10513647 19.54095459 -0.11953735 C20.73634605 -0.12486103 21.93173752 -0.13018471 23.16335297 -0.13566971 C29.49087382 -0.1624271 35.81837477 -0.18179334 42.14593506 -0.19619751 C48.69118098 -0.21284769 55.23592361 -0.25762192 61.78097916 -0.30856895 C66.80467322 -0.34218345 71.82824705 -0.3537687 76.85204315 -0.35942459 C79.26503087 -0.36615355 81.67801022 -0.38141792 84.09088898 -0.4053154 C87.46691662 -0.43684278 90.84157693 -0.43702169 94.2177124 -0.42959595 C95.21739548 -0.44600128 96.21707855 -0.46240662 97.24705505 -0.47930908 C104.05946905 -0.41788406 104.05946905 -0.41788406 107.87268066 2.62786865 C108.50055481 3.46145905 109.12842896 4.29504944 109.77532959 5.15390015 C110.27032959 5.64890015 110.27032959 5.64890015 110.77532959 6.15390015 C111.15920305 11.14425519 110.86246202 14.15206181 107.77532959 18.15390015 C104.63212494 20.24936991 103.89393127 20.40707875 100.31015015 20.42805481 C99.39610916 20.43802994 98.48206818 20.44800507 97.54032898 20.45828247 C96.53973953 20.45894714 95.53915009 20.45961182 94.50823975 20.46029663 C93.45269394 20.46862015 92.39714813 20.47694366 91.30961609 20.48551941 C87.81117086 20.50966642 84.31291188 20.51839718 80.81439209 20.5249939 C78.38685041 20.53395636 75.95930931 20.54307813 73.5317688 20.55235291 C68.43911393 20.56885806 63.34652493 20.57654586 58.25384521 20.57943726 C51.72431788 20.58482373 45.19540842 20.62250913 38.66605568 20.66818142 C33.65092705 20.69790516 28.63594806 20.7051598 23.62073898 20.70616341 C21.21334375 20.71037469 18.80594843 20.72284509 16.39863968 20.74368095 C13.03236539 20.77049791 9.6675346 20.76579781 6.3012085 20.75326538 C5.30466751 20.76809967 4.30812653 20.78293396 3.28138733 20.79821777 C-1.45918999 20.7478902 -3.51223424 20.72354213 -7.32003784 17.67893982 C-7.94856659 16.84567673 -8.57709534 16.01241364 -9.22467041 15.15390015 C-9.55467041 14.82390015 -9.88467041 14.49390015 -10.22467041 14.15390015 C-10.51789907 11.22161352 -10.72471288 9.00898132 -10.22467041 6.15390015 C-7.78717041 3.21640015 -7.78717041 3.21640015 -5.22467041 1.15390015 C-3.66714541 -0.40362485 -2.16741004 0.0151653 0 0 Z " fill="#FDFDFD" transform="translate(302.22467041015625,374.8460998535156)"/>
</svg>
