<?xml version="1.0" encoding="UTF-8"?>
<svg version="1.1" xmlns="http://www.w3.org/2000/svg" width="551" height="879">
<path d="M0 0 C0.87398437 0.36222656 1.74796875 0.72445313 2.6484375 1.09765625 C17.39336044 7.78958282 29.06950248 20.36062601 35.34629822 35.17819214 C39.70760687 47.50155968 39.71374257 59.29134951 39.62890625 72.2578125 C39.62973703 74.5779532 39.63220427 76.89809382 39.63621521 79.2182312 C39.63905662 84.05436148 39.62453225 88.89002438 39.59692383 93.72607422 C39.56280645 99.89001489 39.56888844 106.05312313 39.5875864 112.21710396 C39.59820921 116.99928594 39.58917133 121.78127787 39.57420158 126.56344223 C39.56906063 128.83497425 39.56945122 131.10652646 39.57574654 133.37805557 C39.6052403 150.40583518 38.33256926 164.21146717 29 179 C28.67 179.33 28.34 179.66 28 180 C28.90913131 180.00358253 28.90913131 180.00358253 29.83662891 180.00723743 C44.67282488 180.06670903 59.50887313 180.14245983 74.34489155 180.23571491 C81.51987031 180.28043355 88.69480208 180.31990124 95.86987305 180.34643555 C102.13311659 180.36961176 108.39620836 180.40322239 114.65933102 180.44870156 C117.96705988 180.47237349 121.27461304 180.48971181 124.58242226 180.49761391 C142.97792058 180.54596101 160.70639799 181.34556892 178.4375 186.6875 C179.29964111 186.94241211 180.16178223 187.19732422 181.05004883 187.45996094 C227.31625147 201.54811432 266.01981494 232.40876667 289.3815918 274.91113281 C295.75420808 286.9134601 300.46409091 299.54675232 304.3125 312.5625 C304.54291992 313.32731689 304.77333984 314.09213379 305.01074219 314.88012695 C309.2690971 330.0798277 310.44665437 345.42761483 310.38768005 361.13356018 C310.39186514 362.9809188 310.39734902 364.82827484 310.40399987 366.67562622 C310.41831867 371.69450345 310.41425277 376.71321457 310.40683305 381.73210037 C310.40206985 387.16707789 310.41463873 392.60202108 310.42485046 398.0369873 C310.44198105 408.66111856 310.44289063 419.28519052 310.43763756 429.90933198 C310.43358475 438.5486045 310.43505257 447.18785958 310.44038582 455.82713127 C310.44113424 457.05994643 310.44188266 458.29276158 310.44265376 459.56293477 C310.44418534 462.06790146 310.44572369 464.57286815 310.44726873 467.07783484 C310.4605823 489.86023288 310.45629035 512.64259916 310.44505819 535.42499665 C310.43495419 556.18562419 310.44332047 576.94617084 310.46655273 597.70678711 C310.49266502 621.07833998 310.50541358 644.44984448 310.49836498 667.8214125 C310.49487837 680.1793077 310.49706828 692.53713651 310.51461601 704.89502144 C310.52936544 715.41192695 310.52993732 725.92871927 310.5125451 736.44562263 C310.50405636 741.80488569 310.50183361 747.16394677 310.51719666 752.52319908 C310.53111657 757.4400882 310.52618751 762.35660368 310.50695742 767.27347159 C310.50321947 769.04104428 310.50605481 770.80864743 310.51656907 772.5761928 C310.67710151 801.65775984 300.9214256 826.5799876 280.47265625 847.59765625 C259.90767064 867.13590249 235.07284517 875.70429136 206.97607422 875.47070312 C180.54240671 874.77027614 158.02770409 864.15363995 139 846 C119.58181185 828.25992687 97.620032 813.89676112 72 807 C71.28553711 806.80390137 70.57107422 806.60780273 69.83496094 806.40576172 C46.70501216 800.34838969 20.02393186 800.72312544 -3 807 C-3.98178223 807.25692627 -3.98178223 807.25692627 -4.98339844 807.51904297 C-29.294591 814.07890597 -50.03321944 827.74531745 -68 845 C-92.45203169 867.56419101 -118.57305102 876.25772726 -151.63085938 875.19091797 C-176.43445419 873.78538093 -199.27239208 860.55071638 -216.125 842.8125 C-234.52511079 821.81712795 -241.66504721 797.53675821 -241.50120544 769.99342346 C-241.50510879 768.14763953 -241.51075744 766.30185862 -241.51797634 764.45608467 C-241.53260072 759.43682168 -241.52262801 754.41787658 -241.50823963 749.3986243 C-241.49705885 743.9649737 -241.50909583 738.53136513 -241.51808167 733.09771729 C-241.5319683 722.47375646 -241.5244917 711.84991503 -241.50940608 701.22595996 C-241.49248773 688.83643884 -241.49576362 676.44694697 -241.49950016 664.05741786 C-241.50554755 641.27322454 -241.48980927 618.48909069 -241.46431253 595.70491345 C-241.44120338 574.94445039 -241.43580961 554.18405701 -241.44604492 533.42358398 C-241.45747245 510.0534929 -241.45936131 486.683437 -241.44494683 463.31334633 C-241.4434211 460.81794131 -241.44190074 458.32253629 -241.44038582 455.82713127 C-241.439628 454.59955729 -241.43887019 453.37198331 -241.43808941 452.10721012 C-241.43336053 443.48522603 -241.43518811 434.86325772 -241.43945122 426.24127388 C-241.44439466 415.72328383 -241.4383191 405.20536561 -241.41855692 394.68739194 C-241.40873304 389.32804841 -241.40352638 383.96881388 -241.41144943 378.60946465 C-241.4185711 373.69129887 -241.41155211 368.77335179 -241.3938458 363.85521459 C-241.38984289 362.08827026 -241.39072999 360.32130557 -241.39736467 358.55436916 C-241.45089648 342.94638289 -239.83169447 327.56274934 -235.3125 312.5625 C-235.05758789 311.70035889 -234.80267578 310.83821777 -234.54003906 309.94995117 C-221.51089217 267.16157899 -192.84308006 226.82218166 -153 205 C-152.34 205 -151.68 205 -151 205 C-151.9590625 204.071875 -151.9590625 204.071875 -152.9375 203.125 C-153.96319143 202.08811658 -154.98317127 201.04557615 -156 200 C-156.66499512 199.31808594 -157.32999023 198.63617188 -158.01513672 197.93359375 C-163.83860536 191.73347015 -168.09373044 185.30593484 -172.1875 177.875 C-173.16181347 176.14660134 -174.13614908 174.4182145 -175.11209106 172.69073486 C-176.10336703 170.9334134 -177.08965244 169.17335436 -178.07568359 167.41308594 C-180.99180923 162.24086615 -183.99526748 157.12107219 -187 152 C-188.14642441 150.03680338 -189.2922524 148.07325836 -190.4375 146.109375 C-191.01371094 145.12130859 -191.58992188 144.13324219 -192.18359375 143.11523438 C-192.78300781 142.08720703 -193.38242188 141.05917969 -194 140 C-194.65097656 138.88431641 -195.30195313 137.76863281 -195.97265625 136.61914062 C-197.98664483 133.16558084 -199.99346787 129.70789727 -202 126.25 C-202.61101562 125.20328125 -203.22203125 124.1565625 -203.8515625 123.078125 C-215.00058998 103.82517887 -221.34588818 86.5853977 -216.9375 64.1875 C-212.10272373 46.63080093 -201.16388307 33.12191053 -185.74609375 23.609375 C-170.2224903 15.11870557 -152.68394213 13.55911846 -135.74731445 18.09936523 C-112.78575757 24.9681583 -101.0554209 42.07152701 -90 62 C-89.85304687 60.80246094 -89.70609375 59.60492188 -89.5546875 58.37109375 C-87.44602813 42.547165 -83.54760875 29.45622367 -73 17 C-72.39542969 16.28328125 -71.79085937 15.5665625 -71.16796875 14.828125 C-53.7231072 -4.12250355 -23.58899431 -10.36692113 0 0 Z " fill="#E96E21" transform="translate(241,4)"/>
<path d="M0 0 C2.39986916 -0.00407203 4.79973644 -0.00941744 7.19960022 -0.01593018 C13.00826736 -0.02812679 18.81680343 -0.02642861 24.62547439 -0.01769225 C29.35229596 -0.01088108 34.07908502 -0.01001371 38.80591011 -0.0132637 C39.48199706 -0.0137234 40.15808401 -0.0141831 40.85465844 -0.01465673 C42.22868574 -0.01561603 43.60271303 -0.01658868 44.97674031 -0.0175745 C57.82290638 -0.02610324 70.66900794 -0.0163343 83.51516343 -0.0001734 C94.50460738 0.01322443 105.49395621 0.0109012 116.48339844 -0.00292969 C129.2861236 -0.01903547 142.08879239 -0.02527631 154.89152628 -0.0160929 C156.26043831 -0.01513739 157.62935036 -0.01419427 158.99826241 -0.0132637 C159.67155732 -0.01280088 160.34485224 -0.01233805 161.03855003 -0.0118612 C165.75157899 -0.00928602 170.46457178 -0.01361033 175.17759514 -0.02070236 C181.53810148 -0.02941883 187.8984296 -0.02326504 194.25891685 -0.00601959 C196.58235123 -0.00207948 198.90580081 -0.00314589 201.22922897 -0.00980759 C233.4048411 -0.09349948 260.32021321 7.65777759 284.05102539 30.41943359 C303.95730582 50.24027934 312.32292671 76.73002407 312.38583374 104.31394958 C312.38046239 106.30614437 312.37430903 108.29833719 312.36743164 110.29052734 C312.36945857 112.38310344 312.37237513 114.47567885 312.37612915 116.56825256 C312.38052436 120.93106889 312.37421319 125.29369959 312.36010742 129.65649414 C312.34302813 135.20472237 312.352867 140.75251464 312.37082481 146.30072689 C312.38174804 150.61543467 312.37817729 154.93004181 312.37044144 159.24475288 C312.36846238 161.28856014 312.37081642 163.33237701 312.3778801 165.37617302 C312.46179219 196.47059281 304.2854316 223.18885201 282.71899414 246.07568359 C264.27111226 263.68502539 239.06378736 274.76789771 213.47721863 274.64215088 C212.4813111 274.64527086 211.48540357 274.64839084 210.45931703 274.65160537 C207.15413118 274.65952142 203.84913221 274.65328674 200.54394531 274.64697266 C198.16112664 274.64968541 195.77830881 274.65324794 193.39549255 274.65759277 C187.61370899 274.66574388 181.83198382 274.66458075 176.05019852 274.65876749 C171.34615273 274.65423533 166.64212146 274.6536448 161.93807411 274.65581512 C161.26641848 274.65612159 160.59476285 274.65642806 159.90275401 274.65674381 C158.53790312 274.65738332 157.17305223 274.65803175 155.80820135 274.65868899 C143.0317538 274.66438199 130.25533502 274.65785128 117.47889218 274.64708826 C106.54222881 274.63815982 95.60560792 274.63970095 84.66894531 274.64892578 C71.94025659 274.65965726 59.21159306 274.66382634 46.48290044 274.65770125 C45.12238745 274.65706422 43.76187446 274.65643548 42.40136147 274.65581512 C41.73213339 274.65550657 41.06290532 274.65519802 40.37339761 274.65488012 C35.68252489 274.65316133 30.99167312 274.65614972 26.30080223 274.66077423 C19.97158097 274.66657831 13.64243941 274.66249495 7.3132267 274.65098572 C4.99862932 274.64835513 2.68402517 274.64907664 0.36943054 274.65351105 C-14.19702124 274.67883152 -28.39020885 274.500601 -42.46850586 270.26318359 C-43.17458984 270.05072998 -43.88067383 269.83827637 -44.6081543 269.61938477 C-67.47912766 262.33226529 -87.65183228 245.25063096 -99.18579102 224.28955078 C-103.60966892 215.72083064 -107.64856531 206.75282614 -110.03100586 197.38818359 C-110.28108902 196.4151252 -110.28108902 196.4151252 -110.53622437 195.42240906 C-112.71692811 185.47361844 -112.32013797 175.37119332 -112.29663086 165.24365234 C-112.29798091 163.18540908 -112.29992427 161.12716613 -112.3024292 159.06892395 C-112.30536643 154.76800482 -112.3011294 150.46716914 -112.29174805 146.16625977 C-112.28037609 140.68954635 -112.28690771 135.21302951 -112.29889297 129.73632336 C-112.30616803 125.48861752 -112.30379753 121.2409572 -112.29863739 116.99324989 C-112.29731533 114.97570077 -112.2988972 112.95814734 -112.3035965 110.94060326 C-112.32903666 96.94709322 -111.94188064 83.33626976 -107.84350586 69.82568359 C-107.62847412 69.11371826 -107.41344238 68.40175293 -107.19189453 67.66821289 C-99.77151374 44.31298969 -81.6187272 23.35211181 -59.97241211 12.04541016 C-40.06768656 2.10245415 -21.98960005 -0.062988 0 0 Z " fill="#241C2F" transform="translate(176.031005859375,257.61181640625)"/>
<path d="M0 0 C0.94141846 0.46140381 0.94141846 0.46140381 1.90185547 0.93212891 C13.49026314 6.68560285 13.49026314 6.68560285 16 11 C16.5412081 15.96107425 16.14534237 19.06832204 13 23 C9.54181095 25.59364179 6.2008535 25.35983406 2 25 C-1.15894052 23.71206235 -4.05195793 22.02106889 -7 20.3125 C-15.14068108 15.7982018 -23.03261465 12.50713635 -32 10 C-32.65742188 9.80277344 -33.31484375 9.60554688 -33.9921875 9.40234375 C-53.38723792 5.51578695 -73.40092298 15.17166093 -90.0456543 24.09692383 C-93.1923547 25.55097065 -95.59124261 25.41861933 -99 25 C-102.87949018 21.79520377 -104.80826445 19.69366403 -105.375 14.6875 C-104.89306554 9.94847781 -103.56510081 9.06465217 -100 6 C-97.62715239 4.57629143 -95.35437338 3.32041767 -92.875 2.125 C-92.18559326 1.78766846 -91.49618652 1.45033691 -90.78588867 1.1027832 C-58.87691414 -14.12366821 -31.84407092 -15.70130099 0 0 Z " fill="#FBFBFB" transform="translate(397,347)"/>
<path d="M0 0 C0.94141846 0.46140381 0.94141846 0.46140381 1.90185547 0.93212891 C13.49026314 6.68560285 13.49026314 6.68560285 16 11 C16.5412081 15.96107425 16.14534237 19.06832204 13 23 C9.54181095 25.59364179 6.2008535 25.35983406 2 25 C-1.15894052 23.71206235 -4.05195793 22.02106889 -7 20.3125 C-15.14068108 15.7982018 -23.03261465 12.50713635 -32 10 C-32.65742188 9.80277344 -33.31484375 9.60554688 -33.9921875 9.40234375 C-53.38723792 5.51578695 -73.40092298 15.17166093 -90.0456543 24.09692383 C-93.1923547 25.55097065 -95.59124261 25.41861933 -99 25 C-102.87949018 21.79520377 -104.80826445 19.69366403 -105.375 14.6875 C-104.89306554 9.94847781 -103.56510081 9.06465217 -100 6 C-97.62715239 4.57629143 -95.35437338 3.32041767 -92.875 2.125 C-92.18559326 1.78766846 -91.49618652 1.45033691 -90.78588867 1.1027832 C-58.87691414 -14.12366821 -31.84407092 -15.70130099 0 0 Z " fill="#FBFBFB" transform="translate(248,347)"/>
</svg>
