<svg width="551" height="617" viewBox="0 0 551 617" fill="none" xmlns="http://www.w3.org/2000/svg">
<path d="M0 365C0 265.589 80.5887 185 180 185H371C470.411 185 551 265.589 551 365V617H0V365Z" fill="#EA6F22"/>
<rect x="64" y="258" width="424" height="274" rx="100" fill="#241C2F"/>
<path fill-rule="evenodd" clip-rule="evenodd" d="M216.454 0C251.55 -1.82143e-07 280.001 28.4509 280.001 63.5469V146.901C280.001 181.997 251.55 210.448 216.454 210.448C201.662 210.448 188.051 205.394 177.253 196.919C172.6 202.487 166.906 207.346 160.257 211.186C129.863 228.733 90.9981 218.32 73.4501 187.926L31.7733 115.739C14.2253 85.3452 24.639 46.4797 55.0331 28.9316C85.4272 11.3837 124.292 21.7983 141.84 52.1924L152.907 71.3604V63.5469C152.907 28.4509 181.358 5.17227e-05 216.454 0Z" fill="#EA6F22"/>
<path d="M304 362C304 362 334.641 345 356 345C377.359 345 405 362 405 362" stroke="white" stroke-width="24" stroke-linecap="round"/>
<path d="M153 362C153 362 183.641 345 205 345C226.359 345 254 362 254 362" stroke="white" stroke-width="24" stroke-linecap="round"/>
</svg>
